<svg width="20" height="17" viewBox="0 0 20 17" fill="none" xmlns="http://www.w3.org/2000/svg">
<path fill-rule="evenodd" clip-rule="evenodd" d="M3 16.4958C2.20435 16.4958 1.44129 16.1798 0.87868 15.6172C0.316071 15.0546 0 14.2915 0 13.4958V3.49585C0 2.7002 0.316071 1.93714 0.87868 1.37453C1.44129 0.81192 2.20435 0.49585 3 0.49585H17C17.7956 0.49585 18.5587 0.81192 19.1213 1.37453C19.6839 1.93714 20 2.7002 20 3.49585V13.4958C20 14.2915 19.6839 15.0546 19.1213 15.6172C18.5587 16.1798 17.7956 16.4958 17 16.4958H3ZM5.625 4.71585C5.52313 4.62887 5.40483 4.56324 5.27711 4.52285C5.1494 4.48247 5.01487 4.46816 4.88151 4.48076C4.74816 4.49337 4.61869 4.53264 4.50081 4.59625C4.38292 4.65985 4.27901 4.74649 4.19525 4.85102C4.11149 4.95555 4.04959 5.07585 4.01321 5.20476C3.97684 5.33368 3.96673 5.46859 3.9835 5.60149C4.00026 5.73438 4.04356 5.86256 4.11081 5.9784C4.17806 6.09424 4.2679 6.19539 4.375 6.27585L8.125 9.27685C8.65709 9.70286 9.31838 9.93498 10 9.93498C10.6816 9.93498 11.3429 9.70286 11.875 9.27685L15.625 6.27685C15.7276 6.19477 15.813 6.0933 15.8763 5.97822C15.9396 5.86315 15.9797 5.73672 15.9942 5.60616C16.0087 5.4756 15.9973 5.34346 15.9607 5.2173C15.9241 5.09114 15.8631 4.97341 15.781 4.87085C15.6989 4.76829 15.5974 4.68289 15.4824 4.61955C15.3673 4.5562 15.2409 4.51614 15.1103 4.50166C14.9798 4.48717 14.8476 4.49854 14.7215 4.53512C14.5953 4.5717 14.4776 4.63277 14.375 4.71485L10.625 7.71485C10.4476 7.85685 10.2272 7.93423 10 7.93423C9.77279 7.93423 9.55236 7.85685 9.375 7.71485L5.625 4.71585Z" fill="#FAFAFA"/>
</svg>
