<svg width="20" height="20" viewBox="0 0 20 20" fill="none" xmlns="http://www.w3.org/2000/svg">
<path d="M11.028 0C12.153 0.003 12.724 0.009 13.217 0.023L13.411 0.03C13.635 0.038 13.856 0.0479999 14.123 0.0599999C15.187 0.11 15.913 0.278 16.55 0.525C17.21 0.779 17.766 1.123 18.322 1.678C18.8305 2.1779 19.2239 2.78259 19.475 3.45C19.722 4.087 19.89 4.813 19.94 5.878C19.952 6.144 19.962 6.365 19.97 6.59L19.976 6.784C19.991 7.276 19.997 7.847 19.999 8.972L20 9.718V11.028C20.0024 11.7574 19.9948 12.4868 19.977 13.216L19.971 13.41C19.963 13.635 19.953 13.856 19.941 14.122C19.891 15.187 19.721 15.912 19.475 16.55C19.2246 17.2178 18.8311 17.8226 18.322 18.322C17.8219 18.8303 17.2173 19.2238 16.55 19.475C15.913 19.722 15.187 19.89 14.123 19.94C13.8857 19.9512 13.6483 19.9612 13.411 19.97L13.217 19.976C12.724 19.99 12.153 19.997 11.028 19.999L10.282 20H8.97297C8.24323 20.0025 7.51349 19.9949 6.78397 19.977L6.58997 19.971C6.35258 19.962 6.11524 19.9517 5.87797 19.94C4.81397 19.89 4.08797 19.722 3.44997 19.475C2.78264 19.2244 2.17818 18.8308 1.67897 18.322C1.17001 17.8223 0.776191 17.2176 0.524967 16.55C0.277967 15.913 0.109967 15.187 0.0599666 14.122C0.0488254 13.8847 0.0388253 13.6474 0.0299666 13.41L0.0249667 13.216C0.00653879 12.4868 -0.00179544 11.7574 -3.33508e-05 11.028V8.972C-0.00282432 8.2426 0.0045098 7.5132 0.0219667 6.784L0.0289667 6.59C0.0369667 6.365 0.0469667 6.144 0.0589667 5.878C0.108967 4.813 0.276967 4.088 0.523967 3.45C0.775081 2.7819 1.16969 2.17702 1.67997 1.678C2.17906 1.16947 2.78311 0.775987 3.44997 0.525C4.08797 0.278 4.81297 0.11 5.87797 0.0599999C6.14397 0.0479999 6.36597 0.038 6.58997 0.03L6.78397 0.0239999C7.51316 0.00623271 8.24256 -0.0014347 8.97197 0.000999928L11.028 0ZM9.99997 5C8.67388 5 7.40211 5.52678 6.46443 6.46447C5.52675 7.40215 4.99997 8.67392 4.99997 10C4.99997 11.3261 5.52675 12.5979 6.46443 13.5355C7.40211 14.4732 8.67388 15 9.99997 15C11.326 15 12.5978 14.4732 13.5355 13.5355C14.4732 12.5979 15 11.3261 15 10C15 8.67392 14.4732 7.40215 13.5355 6.46447C12.5978 5.52678 11.326 5 9.99997 5ZM9.99997 7C10.3939 6.99993 10.7841 7.07747 11.1481 7.22817C11.5121 7.37887 11.8428 7.5998 12.1214 7.87833C12.4001 8.15686 12.6211 8.48754 12.7719 8.85149C12.9227 9.21544 13.0004 9.60553 13.0005 9.9995C13.0005 10.3935 12.923 10.7836 12.7723 11.1476C12.6216 11.5116 12.4007 11.8423 12.1221 12.121C11.8436 12.3996 11.5129 12.6206 11.149 12.7714C10.785 12.9223 10.3949 12.9999 10.001 13C9.20532 13 8.44226 12.6839 7.87965 12.1213C7.31704 11.5587 7.00097 10.7956 7.00097 10C7.00097 9.20435 7.31704 8.44129 7.87965 7.87868C8.44226 7.31607 9.20532 7 10.001 7M15.251 3.5C14.9194 3.5 14.6015 3.6317 14.3671 3.86612C14.1327 4.10054 14.001 4.41848 14.001 4.75C14.001 5.08152 14.1327 5.39946 14.3671 5.63388C14.6015 5.8683 14.9194 6 15.251 6C15.5825 6 15.9004 5.8683 16.1349 5.63388C16.3693 5.39946 16.501 5.08152 16.501 4.75C16.501 4.41848 16.3693 4.10054 16.1349 3.86612C15.9004 3.6317 15.5825 3.5 15.251 3.5Z" fill="#F8F8F8"/>
</svg>
